<svg width="25" height="25" viewBox="0 0 25 25" fill="none" xmlns="http://www.w3.org/2000/svg">
<path d="M4.0152 1.68463H21.0082C22.7849 1.68463 24.2305 3.12987 24.2305 4.90685V15.3062C24.2305 17.0792 22.7912 18.5222 21.0197 18.5284V23.2475L14.2378 18.5284H4.0152C2.2385 18.5284 0.792973 17.0829 0.792973 15.3062V4.90685C0.792973 3.12987 2.2385 1.68463 4.0152 1.68463ZM2.16626 15.3062C2.16626 16.3256 2.99567 17.1552 4.0152 17.1552H14.6686L19.6464 20.619V17.1552H21.0082C22.0278 17.1552 22.8572 16.3256 22.8572 15.3062V4.90685C22.8572 3.88719 22.0278 3.05792 21.0082 3.05792H4.0152C2.99567 3.05792 2.16626 3.88719 2.16626 4.90685V15.3062Z" fill="white"/>
<path d="M17.958 6.53705H7.06634V7.91034H17.958V6.53705Z" fill="white"/>
<path d="M17.958 9.46671H7.06634V10.84H17.958V9.46671Z" fill="white"/>
<path d="M17.958 12.3964H7.06634V13.7697H17.958V12.3964Z" fill="white"/>
</svg>
