<svg width="62" height="62" viewBox="0 0 62 62" fill="none" xmlns="http://www.w3.org/2000/svg">
<g clip-path="url(#clip0)">
<path d="M61.6365 11.309C60.9879 8.99224 59.5035 6.58937 57.4569 4.54301C55.4107 2.49652 53.0078 1.01228 50.6909 0.36358C48.0104 -0.386959 45.7001 0.0329937 44.1867 1.54654L1.54648 44.1867C0.0329327 45.7001 -0.38702 48.0101 0.363519 50.691C1.01222 53.0078 2.49658 55.4106 4.54307 57.457C6.58943 59.5035 8.9923 60.9877 11.3091 61.6365C12.1779 61.8798 13.0076 62.0002 13.784 62.0002C15.4032 62.0002 16.7904 61.4766 17.8132 60.4538L33.5684 44.6985L43.5198 54.6499L45.7457 45.7459L54.6498 43.5199L44.6985 33.5686L60.4536 17.8134C61.9671 16.3 62.3871 13.99 61.6365 11.309ZM32.4115 40.7184L19.0339 54.0963C19.0208 54.047 19.0103 53.9987 18.9963 53.9491C18.3476 51.6324 16.8633 49.2295 14.8168 47.1831C12.7704 45.1367 10.3676 43.6524 8.05079 43.0036C8.00139 42.9898 7.95295 42.9791 7.90366 42.9661L21.2814 29.5885C21.8182 29.0517 22.8959 28.9593 24.2378 29.3349C25.9386 29.8112 27.8255 30.9957 29.4149 32.5849C31.004 34.174 32.1887 36.061 32.665 37.7621C33.0407 39.104 32.9483 40.1816 32.4115 40.7184ZM57.8852 15.2449L44.8758 28.2544C44.8627 28.2051 44.8522 28.1568 44.8382 28.1072C44.1897 25.7905 42.7053 23.3876 40.6587 21.3413C38.6123 19.2948 36.2094 17.8105 33.8926 17.1617C33.8432 17.1479 33.7947 17.1372 33.7456 17.1242L46.7551 4.11482C47.2921 3.57813 48.3692 3.48574 49.7115 3.86137C51.4124 4.33751 53.2993 5.52217 54.8886 7.11141C56.4778 8.70052 57.6624 10.5875 58.1387 12.2884C58.5143 13.6304 58.422 14.708 57.8852 15.2449Z" fill="#446CFF"/>
</g>
<defs>
<clipPath id="clip0">
<rect width="62" height="62" fill="white"/>
</clipPath>
</defs>
</svg>
