<svg width="69" height="69" viewBox="0 0 69 69" fill="none" xmlns="http://www.w3.org/2000/svg">
<g clip-path="url(#clip0)">
<path d="M20.5542 2.5941V0H16.5112V2.5941H13.917V6.63707H16.5112V9.23118H20.5542V6.63707H23.1482V2.5941H20.5542Z" fill="#446CFF"/>
<path d="M50.0121 8.25426V5.66016H45.9691V8.25426H43.375V12.2972H45.9691V14.8913H50.0121V12.2972H52.6062V8.25426H50.0121Z" fill="#446CFF"/>
<path d="M27.9213 8.66949H23.8896V12.7011H27.9213V8.66949Z" fill="#446CFF"/>
<path d="M18.7572 20.3631H14.7256V24.3947H18.7572V20.3631Z" fill="#446CFF"/>
<path d="M52.9574 22.3792H48.9258V26.4108H52.9574V22.3792Z" fill="#446CFF"/>
<path d="M43.3754 0H39.3438V4.03165H43.3754V0Z" fill="#446CFF"/>
<path d="M57.2479 31.628H42.6378C42.7771 28.539 43.5652 23.503 46.907 19.6949L43.8682 17.0283C39.6709 21.8113 38.7328 27.9352 38.5892 31.628H36.595V7.69336H32.5521V31.6281H30.5043C30.3606 27.9353 29.4225 21.8114 25.2253 17.0284L22.1864 19.695C25.51 23.4825 26.3028 28.531 26.448 31.6281H11.751L3.76465 46.5215H11.8957V69H57.1033V46.5215H65.2342L57.2479 31.628ZM10.52 42.4787L14.1706 35.6711H31.1217L27.4713 42.4787H10.52ZM32.4778 64.957H15.9386V46.5215H29.8907L32.4778 41.6969V64.957ZM36.5209 64.957V41.6969L39.108 46.5215H53.0602V64.957H36.5209ZM41.5276 42.4787L37.8772 35.6711H54.8283L58.4787 42.4787H41.5276Z" fill="#446CFF"/>
</g>
<defs>
<clipPath id="clip0">
<rect width="69" height="69" fill="white"/>
</clipPath>
</defs>
</svg>
