<svg width="200" height="202" viewBox="0 0 200 202" fill="none" xmlns="http://www.w3.org/2000/svg">
<path d="M83.208 119.143C83.208 155.507 106.02 184.931 134.212 184.931L83.208 119.143Z" fill="#3F3D56"/>
<path d="M134.212 184.931C134.212 148.159 159.67 118.404 191.13 118.404L134.212 184.931Z" fill="#FB8F88"/>
<path d="M101.688 122.439C101.688 156.981 116.235 184.931 134.213 184.931L101.688 122.439Z" fill="#FB8F88"/>
<path d="M134.212 184.931C134.212 137.945 163.637 99.9241 200.001 99.9241L134.212 184.931Z" fill="#3F3D56"/>
<path d="M123.483 185.395C123.483 185.395 130.716 185.172 132.896 183.62C135.076 182.067 144.022 180.214 144.563 182.703C145.104 185.193 155.433 195.085 147.267 195.151C139.101 195.217 128.292 193.879 126.117 192.554C123.941 191.229 123.483 185.395 123.483 185.395Z" fill="#2F2E41"/>
<path d="M57.4961 160.579C57.4961 170.493 51.2765 178.515 43.5904 178.515L57.4961 160.579Z" fill="#3F3D56"/>
<path d="M43.5903 178.515C43.5903 168.489 36.6497 160.377 28.0723 160.377L43.5903 178.515Z" fill="#FB8F88"/>
<path d="M52.4578 161.478C52.4578 170.895 48.4917 178.515 43.5903 178.515L52.4578 161.478Z" fill="#FB8F88"/>
<path d="M43.5903 178.515C43.5903 165.705 35.568 155.339 25.6539 155.339L43.5903 178.515Z" fill="#3F3D56"/>
<path d="M42.0181 178.641C42.0181 178.641 43.9901 178.581 44.5845 178.157C45.1788 177.734 47.618 177.229 47.7654 177.908C47.9129 178.586 50.7291 181.283 48.5026 181.301C46.2762 181.319 43.3294 180.954 42.7362 180.593C42.143 180.232 42.0181 178.641 42.0181 178.641Z" fill="#2F2E41"/>
<path d="M74.742 55.8745H58.6433V84.8521H74.742V55.8745Z" fill="#2F2E41"/>
<path d="M64.8348 67.8135C64.8348 67.8135 64.4633 71.1566 63.7204 71.1566C62.9774 71.1566 60.3772 72.4567 60.3772 72.4567L59.6343 75.9856L64.8348 79.1431L73.3784 78.2144L75.7929 74.4998L73.3784 72.0853C73.3784 72.0853 71.3353 67.6277 72.0783 66.6991C72.8212 65.7704 64.8348 67.8135 64.8348 67.8135Z" fill="#FFCEB9"/>
<path opacity="0.1" d="M54.8 202C84.5416 202 108.652 198.165 108.652 193.433C108.652 188.701 84.5416 184.866 54.8 184.866C25.0584 184.866 0.947998 188.701 0.947998 193.433C0.947998 198.165 25.0584 202 54.8 202Z" fill="black"/>
<path d="M78.4623 174.258H73.1587V186.497H78.4623V174.258Z" fill="#FFCEB9"/>
<path d="M93.8519 78.52L94.5577 84.1684L75.9661 89.8163L73.6125 79.4616L93.8519 78.52Z" fill="#FFCEB9"/>
<path opacity="0.1" d="M66.3163 24.1569C66.3163 24.1569 65.8456 28.393 64.9043 28.393C63.9629 28.393 60.6682 30.0404 60.6682 30.0404L59.7268 34.5119L66.3163 38.5126L77.1419 37.3359L80.2013 32.6292L77.1419 29.5697C77.1419 29.5697 74.5531 23.9216 75.4945 22.7449C76.4358 21.5682 66.3163 24.1569 66.3163 24.1569Z" fill="black"/>
<path d="M36.8995 170.773C36.8995 170.773 34.7815 184.894 32.1927 185.835C29.604 186.776 42.077 188.424 42.077 188.424L43.0183 183.246C43.0183 183.246 43.2537 173.833 44.195 172.421C45.1364 171.009 36.8995 170.773 36.8995 170.773Z" fill="#FFCEB9"/>
<path d="M60.9041 88.6399C60.9041 88.6399 95.0282 82.5211 95.2635 81.3444C95.4989 80.1677 102.324 90.2872 98.0876 110.056C93.8515 129.824 83.2613 176.421 83.2613 176.421C83.2613 176.421 72.4357 179.716 72.671 177.127C72.9064 174.538 76.4364 129.589 76.4364 129.589L74.083 110.526L70.0823 112.88L53.3733 145.827L44.901 174.303C44.901 174.303 34.0755 176.186 35.7228 172.185C37.3702 168.184 42.783 137.12 42.783 137.12L57.6093 93.3466C57.6093 93.3466 57.1387 88.6399 60.9041 88.6399Z" fill="#2F2E41"/>
<path d="M69.4934 27.3341C74.9523 27.3341 79.3776 22.9088 79.3776 17.4499C79.3776 11.991 74.9523 7.56567 69.4934 7.56567C64.0344 7.56567 59.6091 11.991 59.6091 17.4499C59.6091 22.9088 64.0344 27.3341 69.4934 27.3341Z" fill="#FFCEB9"/>
<path d="M79.7312 29.8049C79.7312 29.8049 75.0245 34.2764 63.9636 33.0997C52.9026 31.923 67.023 58.2809 67.023 58.2809L71.4944 84.8742C71.4944 84.8742 91.2629 82.5208 91.9689 78.0494C92.6749 73.5779 79.7312 29.8049 79.7312 29.8049Z" fill="#F2F2F2"/>
<path d="M75.0244 54.9865C75.0244 54.9865 69.3763 52.1625 67.2583 44.3963C65.1402 36.6301 63.2575 28.6286 62.0808 28.8639C61.0873 29.0626 51.873 32.6167 48.8866 34.9934C48.336 35.4315 47.9971 35.8297 47.9605 36.1594C47.7252 38.2775 56.4327 59.458 56.4327 59.458C56.4327 59.458 63.2575 74.755 60.4335 79.6971C57.6094 84.6392 57.374 90.9934 62.5515 90.5227C67.7289 90.052 84.9087 89.1106 82.5553 75.9317C82.5553 75.9317 87.0267 85.1099 99.4997 78.5204C99.4997 78.5204 107.031 77.3437 106.795 74.755C106.56 72.1662 94.7929 49.8091 94.7929 49.8091C94.7929 49.8091 92.9102 39.9248 96.4403 36.1594L88.4388 26.7459C88.4388 26.7459 86.5561 23.9218 84.6734 25.3338C82.7906 26.7459 78.5545 29.0993 77.8485 29.3346C77.1425 29.5699 76.6784 28.4888 76.6784 28.4888C75.0478 31.8992 74.3939 35.6947 74.7891 39.4542C75.4951 45.573 75.0244 54.9865 75.0244 54.9865Z" fill="#FB8F88"/>
<path d="M37.6052 183.011C37.6052 183.011 37.0797 181.363 34.0477 183.011C34.0477 183.011 35.0164 177.833 31.7217 177.833C28.4269 177.833 27.2503 183.952 27.2503 183.952C27.2503 183.952 26.3089 187.953 19.9548 189.6C13.6006 191.248 18.5427 196.896 23.0142 196.896C27.4856 196.896 33.3691 193.366 33.3691 193.366C33.3691 193.366 45.6067 193.601 45.842 191.248C46.0773 188.894 44.6653 181.834 43.724 181.834C42.7826 181.834 40.8999 185.129 40.8999 185.129L37.6052 183.011Z" fill="#2F2E41"/>
<path d="M77.6125 178.869C77.6125 178.869 74.3178 175.339 72.4351 181.222C70.5524 187.106 69.1403 189.459 70.317 190.4C71.4938 191.342 72.4351 190.871 71.9644 192.754C71.4937 194.637 73.3764 198.637 77.6125 198.637C81.8486 198.637 83.0253 195.578 82.79 193.46C82.5547 191.342 80.672 188.753 80.672 188.753L78.7892 182.164L77.6125 178.869Z" fill="#2F2E41"/>
<path d="M96.2048 13.3315L83.7318 17.5676C83.7318 17.5676 72.4356 24.1571 77.3777 25.5691C82.3198 26.9812 86.5559 21.3331 86.5559 21.3331L97.3815 18.509L96.2048 13.3315Z" fill="#FFCEB9"/>
<path d="M62.7683 2.16512C61.2874 3.17961 60.1085 4.56915 58.9876 5.97124C56.7101 8.82012 54.4786 12.2226 55.0398 15.8265C55.2529 17.1953 55.8612 18.4692 56.2037 19.8115C56.666 21.623 56.6355 23.5189 56.6021 25.3882C56.6296 26.1824 56.5311 26.976 56.3104 27.7395C55.9807 28.4834 55.593 29.2002 55.1508 29.8832C54.0174 31.9943 53.9896 34.5028 53.9886 36.8989C53.9343 37.7056 54.0441 38.5149 54.3112 39.278C54.6207 39.9985 55.1969 40.5634 55.6747 41.1852C56.4665 42.2356 56.9949 43.4606 57.2156 44.7574C57.4362 46.0542 57.3426 47.385 56.9427 48.6382C57.557 48.6409 58.1592 48.4683 58.6788 48.1407C59.1983 47.8131 59.6137 47.3441 59.876 46.7887C59.9576 47.3858 59.9062 47.9937 59.7254 48.5686C59.5446 49.1436 59.239 49.6715 58.8304 50.1146C61.5243 49.314 64.4122 47.9641 65.3955 45.3314C65.684 44.4368 65.8468 43.5064 65.879 42.567C66.402 35.9629 66.7007 29.1119 64.3322 22.925C63.5745 20.9456 62.5431 19.0296 62.2891 16.9254C62.0351 14.8212 62.8116 12.3895 64.7448 11.5206C64.7898 12.0593 65.0291 12.5632 65.418 12.9387C65.8483 13.2581 66.644 13.0577 66.6518 12.5219L67.5856 13.822C67.9437 13.6462 68.2495 13.3794 68.4723 13.0485L69.1124 13.8321L70.474 12.8417L71.6562 14.1167C72.1114 13.8574 72.4743 13.4625 72.6942 12.9871C72.9483 13.3671 73.2628 13.7847 73.7181 13.8259C74.7095 13.9155 74.9141 12.3421 75.7802 11.8514C76.1001 11.71 76.4601 11.6881 76.7949 11.7896C77.1296 11.891 77.4168 12.1092 77.6044 12.4043C77.9616 13.0119 78.0917 13.7263 77.9717 14.4208C77.6133 17.6568 74.8521 20.6097 75.6708 23.7609C76.1311 25.5329 77.6816 26.9537 77.7985 28.7808C77.892 30.2409 77.0336 31.6222 77.0468 33.0853C77.0621 34.7999 78.2468 36.2562 79.4033 37.5221C81.4615 39.7752 83.6279 41.9227 85.9025 43.9646L85.1998 42.7353C85.5279 42.7095 85.8576 42.7549 86.1665 42.8685C86.4753 42.9821 86.756 43.1612 86.9891 43.3934C87.1911 42.6868 86.8563 41.9506 86.5403 41.2871C84.6483 37.314 83.1208 33.0835 82.8926 28.6888C82.5755 22.5801 84.7719 16.3763 83.3799 10.4198C82.5793 7.08481 80.7132 4.10174 78.0646 1.92273C76.7772 0.862939 75.801 0.228141 74.1339 0.111343C72.2702 -0.0505771 70.3954 -0.0358615 68.5345 0.15528C66.4786 0.3509 64.5004 1.04042 62.7683 2.16512Z" fill="#2F2E41"/>
<path d="M86.5554 26.9812C86.5554 26.9812 89.1442 27.2165 90.3208 26.9812C91.4975 26.7459 93.1449 25.5692 93.1449 25.5692L102.088 18.9797L94.3216 20.1564C94.3216 20.1564 95.7336 9.33078 95.2629 9.09544C94.7923 8.8601 118.091 4.38867 117.62 11.6842C117.149 18.9797 103.97 33.3353 96.4396 36.1594L91.4975 36.8654L86.5554 26.9812Z" fill="#FB8F88"/>
<path d="M46.5486 99.2301C46.5486 99.2301 45.3719 114.762 51.02 115.469C56.6681 116.175 51.4907 97.8181 51.4907 97.8181L46.5486 99.2301Z" fill="#FFCEB9"/>
<path d="M49.6073 35.6885L47.9599 36.1592C47.9599 36.1592 41.1351 90.7577 45.6065 101.348C45.6065 101.348 50.3133 98.7593 52.6667 99.2299L56.4321 54.7509L49.6073 35.6885Z" fill="#FB8F88"/>
<path d="M110.522 111.238H22.9456V131.844H110.522V111.238Z" fill="#3A5EE3"/>
<path d="M99.0915 115.906H34.053V126.854H99.0915V115.906Z" fill="white"/>
<path d="M49.1678 121.14C49.1418 120.859 47.9002 120.734 46.1967 120.804C47.1838 119.414 47.7556 118.305 47.5344 118.13C47.3257 117.966 46.4718 118.678 45.4321 119.836C45.3339 118.283 45.1057 117.194 44.8397 117.194C44.5497 117.194 44.3045 118.489 44.2239 120.27C42.7772 119.229 41.609 118.619 41.4291 118.846C41.2575 119.064 42.0394 119.981 43.2824 121.079C41.6419 121.323 40.4861 121.666 40.5116 121.942C40.5377 122.223 41.7793 122.348 43.4828 122.277C42.4956 123.668 41.9239 124.777 42.1451 124.952C42.3538 125.116 43.2077 124.404 44.2474 123.246C44.3456 124.799 44.5738 125.888 44.8397 125.888C45.1298 125.888 45.375 124.592 45.4555 122.812C46.9022 123.853 48.0705 124.463 48.2503 124.236C48.422 124.018 47.6401 123.1 46.3971 122.002C48.0376 121.759 49.1934 121.416 49.1678 121.14Z" fill="#446CFF"/>
<path d="M60.1143 121.14C60.0883 120.859 58.8467 120.734 57.1432 120.804C58.1304 119.414 58.7021 118.305 58.4809 118.13C58.2722 117.966 57.4183 118.678 56.3786 119.836C56.2804 118.283 56.0522 117.194 55.7863 117.194C55.4962 117.194 55.251 118.489 55.1705 120.27C53.7238 119.229 52.5555 118.619 52.3757 118.846C52.204 119.064 52.9859 119.981 54.2289 121.079C52.5884 121.323 51.4326 121.666 51.4582 121.942C51.4842 122.223 52.7258 122.348 54.4293 122.277C53.4422 123.668 52.8704 124.777 53.0916 124.952C53.3003 125.116 54.1542 124.404 55.1939 123.246C55.2921 124.799 55.5203 125.888 55.7863 125.888C56.0763 125.888 56.3215 124.592 56.4021 122.812C57.8487 123.853 59.017 124.463 59.1969 124.236C59.3685 124.018 58.5866 123.1 57.3436 122.002C58.9841 121.759 60.1399 121.416 60.1143 121.14Z" fill="#446CFF"/>
<path d="M71.0621 121.14C71.0361 120.859 69.7945 120.734 68.091 120.804C69.0781 119.414 69.6499 118.305 69.4287 118.13C69.22 117.966 68.3661 118.678 67.3264 119.836C67.2281 118.283 66.9999 117.194 66.734 117.194C66.444 117.194 66.1988 118.489 66.1182 120.27C64.6715 119.229 63.5033 118.619 63.3234 118.846C63.1518 119.064 63.9337 119.981 65.1767 121.079C63.5361 121.323 62.3804 121.666 62.4059 121.942C62.432 122.223 63.6735 122.348 65.3771 122.277C64.3899 123.668 63.8182 124.777 64.0394 124.952C64.248 125.116 65.1019 124.404 66.1416 123.246C66.2399 124.799 66.4681 125.888 66.734 125.888C67.0241 125.888 67.2692 124.592 67.3498 122.812C68.7965 123.853 69.9648 124.463 70.1446 124.236C70.3163 124.018 69.5344 123.1 68.2914 122.002C69.9319 121.759 71.0876 121.416 71.0621 121.14Z" fill="#446CFF"/>
<path d="M82.0091 121.14C81.9831 120.859 80.7415 120.734 79.038 120.804C80.0251 119.414 80.5969 118.305 80.3757 118.13C80.167 117.966 79.3131 118.678 78.2734 119.836C78.1752 118.283 77.947 117.194 77.681 117.194C77.391 117.194 77.1458 118.489 77.0652 120.27C75.6186 119.229 74.4503 118.619 74.2705 118.846C74.0988 119.064 74.8807 119.981 76.1237 121.079C74.4832 121.323 73.3274 121.666 73.353 121.942C73.379 122.223 74.6206 122.348 76.3241 122.277C75.3369 123.668 74.7652 124.777 74.9864 124.952C75.1951 125.116 76.049 124.404 77.0887 123.246C77.1869 124.799 77.4151 125.888 77.681 125.888C77.9711 125.888 78.2163 124.592 78.2968 122.812C79.7435 123.853 80.9118 124.463 81.0916 124.236C81.2633 124.018 80.4814 123.1 79.2384 122.002C80.8789 121.759 82.0347 121.416 82.0091 121.14Z" fill="#446CFF"/>
<path d="M92.9554 121.14C92.9294 120.859 91.6878 120.734 89.9843 120.804C90.9714 119.414 91.5432 118.305 91.322 118.13C91.1133 117.966 90.2594 118.678 89.2197 119.836C89.1215 118.283 88.8933 117.194 88.6273 117.194C88.3373 117.194 88.0921 118.489 88.0115 120.27C86.5648 119.229 85.3966 118.619 85.2167 118.846C85.0451 119.064 85.827 119.981 87.07 121.079C85.4294 121.323 84.2737 121.666 84.2992 121.942C84.3253 122.223 85.5669 122.348 87.2704 122.277C86.2832 123.668 85.7115 124.777 85.9327 124.952C86.1414 125.116 86.9953 124.404 88.0349 123.246C88.1332 124.799 88.3614 125.888 88.6273 125.888C88.9174 125.888 89.1626 124.592 89.2431 122.812C90.6898 123.853 91.8581 124.463 92.0379 124.236C92.2096 124.018 91.4277 123.1 90.1847 122.002C91.8252 121.759 92.981 121.416 92.9554 121.14Z" fill="#446CFF"/>
<path d="M46.6157 100.823C46.6157 100.823 45.3711 115.709 51.0193 116.415C56.6674 117.121 51.8233 99.4028 51.8233 99.4028L46.6157 100.823Z" fill="#FFCEB9"/>
</svg>
