<svg width="342" height="258" viewBox="0 0 342 258" fill="none" xmlns="http://www.w3.org/2000/svg">
<g opacity="0.6" filter="url(#filter0_f)">
<path d="M298 117.234L246.959 78.754L151.106 117.985L182.655 117.234L44 224.229L209.984 246.754L257.006 117.234H298Z" fill="#2442B1"/>
</g>
<path d="M335.283 43.2953L280.394 0L180.398 46.1937H208.476L79.134 151.443L253.946 176.985L294.705 44.0199L335.283 43.2953Z" fill="url(#paint0_linear)"/>
<g filter="url(#filter1_ii)">
<path d="M324.414 41.3026L278.401 4.1665L191.992 42.0272L220.432 41.3026L95.4377 144.559L245.069 166.297L287.459 41.3026H324.414Z" fill="#446CFF"/>
</g>
<path d="M338 56.3382L335.102 43.2953H294.705L254.127 177.166L78.9529 151.443L87.1047 164.305L260.648 193.47L298.871 56.3382H338Z" fill="#7B7B7B"/>
<path d="M338 56.3382L335.102 43.2953H294.705L254.127 177.166L78.9529 151.443L87.1047 164.305L260.648 193.47L298.871 56.3382H338Z" fill="url(#paint1_linear)"/>
<path d="M184.746 57.4251L179.673 46.1937H208.477L195.071 57.4251H184.746Z" fill="#C4C4C4"/>
<g opacity="0.5" filter="url(#filter2_f)">
<path d="M226 147.254L236 130.254L172.5 109.254L156 132.754L226 147.254Z" fill="url(#paint2_linear)"/>
</g>
<path d="M227.465 124.063C227.485 123.036 226.724 122.161 225.704 122.038L162.359 114.417C161.54 114.319 160.744 114.734 160.356 115.462L150.345 134.232C149.692 135.457 150.455 136.959 151.831 137.153L224.765 147.439C225.953 147.606 227.021 146.697 227.044 145.498L227.465 124.063Z" fill="url(#paint3_linear)"/>
<g filter="url(#filter3_d)">
<path d="M224.5 126.012C224.5 125.007 223.753 124.158 222.756 124.029L163.926 116.438C163.074 116.328 162.247 116.774 161.871 117.547L154.703 132.282C154.109 133.503 154.878 134.948 156.222 135.137L222.221 144.433C223.425 144.603 224.5 143.668 224.5 142.453V126.012Z" fill="url(#paint4_linear)"/>
</g>
<path d="M171.229 122.411L168.521 133.218L164.956 132.75C164.852 131.022 164.817 129.068 164.85 126.889C164.616 127.792 164.101 129.673 163.302 132.533L159.757 132.067L159.924 120.927L162.696 121.291L162.485 125.158L162.298 128.891C162.653 126.994 163.244 124.52 164.072 121.471L167.041 121.861C167.039 122.187 166.985 123.407 166.877 125.521L166.642 129.731C167.148 127.099 167.753 124.538 168.457 122.047L171.229 122.411ZM177.238 128.426L176.948 130.629C176.842 131.438 176.723 132.026 176.592 132.395C176.462 132.76 176.242 133.089 175.932 133.384C175.622 133.674 175.247 133.871 174.806 133.974C174.37 134.073 173.881 134.087 173.339 134.016C172.734 133.936 172.229 133.803 171.826 133.617C171.424 133.427 171.123 133.182 170.923 132.885C170.728 132.584 170.606 132.237 170.556 131.844C170.507 131.447 170.533 130.867 170.633 130.103L170.936 127.798C171.045 126.963 171.221 126.321 171.464 125.875C171.706 125.429 172.081 125.095 172.588 124.872C173.096 124.649 173.715 124.585 174.447 124.681C175.062 124.762 175.576 124.924 175.99 125.166C176.409 125.405 176.719 125.687 176.92 126.013C177.121 126.338 177.244 126.662 177.289 126.985C177.338 127.308 177.321 127.789 177.238 128.426ZM174.588 127.389C174.649 126.928 174.662 126.635 174.628 126.511C174.594 126.383 174.496 126.308 174.333 126.286C174.171 126.265 174.054 126.312 173.984 126.427C173.914 126.537 173.849 126.823 173.789 127.284L173.256 131.344C173.2 131.768 173.19 132.05 173.227 132.188C173.265 132.322 173.363 132.399 173.521 132.419C173.684 132.441 173.798 132.396 173.863 132.285C173.932 132.175 173.993 131.925 174.044 131.537L174.588 127.389ZM181.299 125.746L181.035 126.911C181.544 126.119 182.179 125.747 182.94 125.796L182.524 128.962C182.023 128.896 181.646 128.915 181.393 129.02C181.14 129.125 180.971 129.295 180.884 129.532C180.799 129.765 180.699 130.317 180.584 131.189L180.118 134.74L177.38 134.381L178.56 125.387L181.299 125.746ZM186.615 124.431L185.174 135.404L182.354 135.034L183.795 124.061L186.615 124.431ZM193.833 125.379L192.392 136.352L189.654 135.992L189.74 135.342C189.442 135.579 189.14 135.746 188.833 135.843C188.526 135.941 188.214 135.969 187.898 135.927C187.473 135.872 187.119 135.713 186.836 135.45C186.554 135.183 186.387 134.897 186.336 134.592C186.288 134.287 186.308 133.802 186.395 133.138L186.948 128.929C187.039 128.237 187.146 127.753 187.27 127.475C187.398 127.198 187.635 126.971 187.98 126.796C188.325 126.616 188.717 126.555 189.155 126.612C189.494 126.657 189.796 126.758 190.06 126.917C190.328 127.077 190.562 127.293 190.76 127.568L191.095 125.019L193.833 125.379ZM190.538 129.262C190.581 128.932 190.581 128.707 190.537 128.586C190.498 128.466 190.394 128.395 190.227 128.373C190.064 128.352 189.947 128.389 189.874 128.486C189.807 128.578 189.75 128.8 189.704 129.153L189.126 133.558C189.078 133.924 189.073 134.17 189.112 134.294C189.151 134.414 189.248 134.484 189.401 134.505C189.578 134.528 189.703 134.48 189.779 134.361C189.855 134.238 189.926 133.925 189.991 133.424L190.538 129.262ZM197.351 125.841L202.109 126.465L201.82 128.661L199.916 128.411L199.643 130.492L201.425 130.726L201.151 132.814L199.369 132.58L199.052 134.993L201.146 135.267L200.858 137.463L195.91 136.814L197.351 125.841ZM208.907 127.358L207.273 132.08L207.974 138.398L205.331 138.051C205.158 136.916 205.044 135.547 204.988 133.945C204.825 134.627 204.629 135.348 204.4 136.108L203.894 137.862L201.115 137.497L202.949 131.512L202.556 126.524L205.315 126.886C205.325 127.196 205.358 127.712 205.414 128.437C205.461 128.99 205.494 129.495 205.512 129.953L206.514 127.044L208.907 127.358ZM209.822 127.478L212.696 127.855C213.473 127.957 214.061 128.097 214.461 128.273C214.865 128.451 215.156 128.668 215.334 128.926C215.516 129.184 215.621 129.483 215.65 129.822C215.684 130.158 215.656 130.669 215.566 131.356L215.441 132.311C215.349 133.012 215.209 133.513 215.023 133.815C214.836 134.116 214.537 134.328 214.126 134.448C213.719 134.57 213.204 134.589 212.581 134.507L211.815 134.407L211.235 138.826L208.381 138.451L209.822 127.478ZM212.429 129.73L212.062 132.523C212.143 132.538 212.213 132.549 212.271 132.557C212.533 132.591 212.722 132.552 212.839 132.438C212.96 132.321 213.047 132.059 213.1 131.652L213.219 130.751C213.268 130.376 213.241 130.124 213.139 129.996C213.036 129.867 212.799 129.779 212.429 129.73ZM222.466 135.674C222.321 136.777 222.191 137.555 222.077 138.009C221.967 138.459 221.75 138.855 221.424 139.199C221.103 139.543 220.697 139.786 220.205 139.928C219.712 140.07 219.157 140.101 218.538 140.019C217.95 139.942 217.434 139.778 216.989 139.526C216.549 139.271 216.212 138.933 215.978 138.511C215.744 138.09 215.629 137.649 215.634 137.19C215.639 136.731 215.716 135.937 215.864 134.808L216.111 132.93C216.256 131.828 216.383 131.051 216.493 130.602C216.607 130.148 216.825 129.749 217.146 129.405C217.471 129.062 217.88 128.819 218.372 128.677C218.864 128.534 219.42 128.504 220.039 128.585C220.626 128.662 221.14 128.829 221.58 129.084C222.025 129.335 222.365 129.672 222.599 130.093C222.833 130.515 222.948 130.955 222.943 131.414C222.938 131.873 222.861 132.667 222.712 133.797L222.466 135.674ZM220.086 131.694C220.153 131.183 220.166 130.854 220.126 130.706C220.091 130.555 219.985 130.467 219.809 130.444C219.66 130.424 219.537 130.468 219.44 130.575C219.348 130.678 219.265 131.012 219.191 131.576L218.519 136.7C218.435 137.338 218.408 137.734 218.438 137.89C218.473 138.046 218.585 138.136 218.775 138.161C218.969 138.187 219.105 138.117 219.181 137.953C219.258 137.788 219.339 137.383 219.424 136.737L220.086 131.694Z" fill="#446CFF"/>
<defs>
<filter id="filter0_f" x="0" y="34.754" width="342" height="256" filterUnits="userSpaceOnUse" color-interpolation-filters="sRGB">
<feFlood flood-opacity="0" result="BackgroundImageFix"/>
<feBlend mode="normal" in="SourceGraphic" in2="BackgroundImageFix" result="shape"/>
<feGaussianBlur stdDeviation="22" result="effect1_foregroundBlur"/>
</filter>
<filter id="filter1_ii" x="95.4375" y="2.1665" width="228.976" height="167.131" filterUnits="userSpaceOnUse" color-interpolation-filters="sRGB">
<feFlood flood-opacity="0" result="BackgroundImageFix"/>
<feBlend mode="normal" in="SourceGraphic" in2="BackgroundImageFix" result="shape"/>
<feColorMatrix in="SourceAlpha" type="matrix" values="0 0 0 0 0 0 0 0 0 0 0 0 0 0 0 0 0 0 127 0" result="hardAlpha"/>
<feOffset dy="4"/>
<feGaussianBlur stdDeviation="1.5"/>
<feComposite in2="hardAlpha" operator="arithmetic" k2="-1" k3="1"/>
<feColorMatrix type="matrix" values="0 0 0 0 0 0 0 0 0 0 0 0 0 0 0 0 0 0 0.25 0"/>
<feBlend mode="normal" in2="shape" result="effect1_innerShadow"/>
<feColorMatrix in="SourceAlpha" type="matrix" values="0 0 0 0 0 0 0 0 0 0 0 0 0 0 0 0 0 0 127 0" result="hardAlpha"/>
<feOffset dy="-2"/>
<feGaussianBlur stdDeviation="1"/>
<feComposite in2="hardAlpha" operator="arithmetic" k2="-1" k3="1"/>
<feColorMatrix type="matrix" values="0 0 0 0 0 0 0 0 0 0 0 0 0 0 0 0 0 0 0.25 0"/>
<feBlend mode="normal" in2="effect1_innerShadow" result="effect2_innerShadow"/>
</filter>
<filter id="filter2_f" x="152" y="105.254" width="88" height="46" filterUnits="userSpaceOnUse" color-interpolation-filters="sRGB">
<feFlood flood-opacity="0" result="BackgroundImageFix"/>
<feBlend mode="normal" in="SourceGraphic" in2="BackgroundImageFix" result="shape"/>
<feGaussianBlur stdDeviation="2" result="effect1_foregroundBlur"/>
</filter>
<filter id="filter3_d" x="152.5" y="114.421" width="74.0005" height="32.0315" filterUnits="userSpaceOnUse" color-interpolation-filters="sRGB">
<feFlood flood-opacity="0" result="BackgroundImageFix"/>
<feColorMatrix in="SourceAlpha" type="matrix" values="0 0 0 0 0 0 0 0 0 0 0 0 0 0 0 0 0 0 127 0"/>
<feOffset/>
<feGaussianBlur stdDeviation="1"/>
<feColorMatrix type="matrix" values="0 0 0 0 0 0 0 0 0 0 0 0 0 0 0 0 0 0 0.65 0"/>
<feBlend mode="normal" in2="BackgroundImageFix" result="effect1_dropShadow"/>
<feBlend mode="normal" in="SourceGraphic" in2="effect1_dropShadow" result="shape"/>
</filter>
<linearGradient id="paint0_linear" x1="278.763" y1="5.74323e-06" x2="176.413" y2="169.739" gradientUnits="userSpaceOnUse">
<stop stop-color="#939393"/>
<stop offset="0.213542" stop-color="#EEEEEE"/>
<stop offset="0.515625" stop-color="#8A8A8A"/>
<stop offset="0.807292" stop-color="#DCDCDC"/>
<stop offset="1" stop-color="#939393"/>
</linearGradient>
<linearGradient id="paint1_linear" x1="280.841" y1="43.2953" x2="201.73" y2="199.665" gradientUnits="userSpaceOnUse">
<stop stop-color="#939393"/>
<stop offset="0.213542" stop-color="#EEEEEE"/>
<stop offset="0.515625" stop-color="#8A8A8A"/>
<stop offset="0.807292" stop-color="#DCDCDC"/>
<stop offset="1" stop-color="#939393"/>
</linearGradient>
<linearGradient id="paint2_linear" x1="193" y1="114.754" x2="186.5" y2="137.754" gradientUnits="userSpaceOnUse">
<stop stop-opacity="0"/>
<stop offset="1"/>
</linearGradient>
<linearGradient id="paint3_linear" x1="191.5" y1="118.254" x2="184.5" y2="153.754" gradientUnits="userSpaceOnUse">
<stop stop-color="#224ADA"/>
<stop offset="1" stop-color="#A9B2D3"/>
</linearGradient>
<linearGradient id="paint4_linear" x1="187" y1="114.754" x2="187" y2="136.754" gradientUnits="userSpaceOnUse">
<stop stop-color="white"/>
<stop offset="1" stop-color="#D1DEE9"/>
</linearGradient>
</defs>
</svg>
