<svg width="291" height="299" viewBox="0 0 291 299" fill="none" xmlns="http://www.w3.org/2000/svg">
<path d="M137.741 268.439H107.346V298.834H137.741V268.439Z" fill="#CFCCE0"/>
<path d="M133.743 294.835H101.748V262.839H133.743V294.835ZM103.348 293.235H132.143V264.439H103.348L103.348 293.235Z" fill="#446CFF"/>
<path d="M170.997 2.85283L151.762 10.2923L158.944 28.862L178.179 21.4225L170.997 2.85283Z" fill="white"/>
<path d="M174.703 19.958L154.454 27.789L146.895 8.24204L167.143 0.411011L174.703 19.958ZM155.089 26.4201L173.312 19.3722L166.508 1.7799L148.285 8.82784L155.089 26.4201Z" fill="#446CFF"/>
<path d="M95.6323 132.277C106.91 132.519 115.881 140.691 115.881 140.691C115.881 140.691 106.568 148.472 95.2901 148.23C84.0123 147.988 75.041 139.815 75.041 139.815C75.041 139.815 84.3545 132.035 95.6323 132.277Z" fill="#FB8F88"/>
<path d="M38.9352 93.7799C49.1241 98.6205 60.8076 95.338 60.8076 95.338C60.8076 95.338 55.9715 84.2075 45.7825 79.3669C35.5936 74.5263 23.9102 77.8088 23.9102 77.8088C23.9102 77.8088 28.7462 88.9394 38.9352 93.7799Z" fill="#FB8F88"/>
<path d="M39.9714 88.9697C51.2049 87.943 61.0375 95.0561 61.0375 95.0561C61.0375 95.0561 52.6571 103.834 41.4236 104.86C30.19 105.887 20.3574 98.7738 20.3574 98.7738C20.3574 98.7738 28.7379 89.9963 39.9714 88.9697Z" fill="#446CFF"/>
<path d="M81.1487 90.9146C80.072 102.143 87.1411 112.008 87.1411 112.008C87.1411 112.008 95.956 103.666 97.0327 92.4377C98.1094 81.2088 91.0403 71.3445 91.0403 71.3445C91.0403 71.3445 82.2254 79.6858 81.1487 90.9146Z" fill="#446CFF"/>
<path d="M134.053 159.78C128.161 169.4 130.188 181.365 130.188 181.365C130.188 181.365 141.768 177.734 147.66 168.115C153.552 158.496 151.525 146.531 151.525 146.531C151.525 146.531 139.945 150.161 134.053 159.78Z" fill="#446CFF"/>
<path d="M116.96 264.366L117.819 263.786C114.792 259.394 113.14 254.201 113.071 248.867C113.095 241.065 116.927 233.849 120.633 226.87C121.321 225.575 122.007 224.284 122.667 222.993C125.435 217.732 127.641 212.193 129.249 206.469C134.998 185.106 129.338 159.902 114.109 139.047C102.029 122.504 84.0201 108.037 59.0551 94.8213L58.5703 95.7371C83.3932 108.878 101.286 123.245 113.272 139.659C128.318 160.262 133.916 185.137 128.248 206.199C126.659 211.854 124.479 217.325 121.744 222.522C121.087 223.807 120.403 225.094 119.718 226.384C115.953 233.474 112.06 240.806 112.035 248.864C112.103 254.406 113.818 259.802 116.96 264.366Z" fill="#446CFF"/>
<path d="M9.84465 96.1829C15.2817 96.1829 19.6893 91.7753 19.6893 86.3383C19.6893 80.9012 15.2817 76.4936 9.84465 76.4936C4.4076 76.4936 0 80.9012 0 86.3383C0 91.7753 4.4076 96.1829 9.84465 96.1829Z" fill="#446CFF"/>
<path d="M289.18 266.307L190 266.254L190.779 210.574L240.068 232.728L289.959 211.962L289.18 266.307Z" fill="#446CFF"/>
<path d="M212.398 241.043L197.898 240.84L197.817 246.64L212.317 246.843L212.398 241.043Z" fill="#FB8F88"/>
<path d="M290.29 211.885L240.158 237.443L190.518 211.885V210.411H290.29V211.885Z" fill="#FB8F88"/>
</svg>
