<svg width="349" height="455" viewBox="0 0 349 455" fill="none" xmlns="http://www.w3.org/2000/svg">
<path d="M4.11499 211.49C4.11499 211.49 -3.75904 246.923 11.989 240.624C27.7371 234.324 18.2882 209.915 18.2882 209.915L4.11499 211.49Z" fill="#FFCEB9"/>
<path d="M151.359 223.301C151.359 223.301 170.257 246.136 158.446 250.86C146.635 255.584 140.336 229.6 141.911 227.238C143.485 224.876 151.359 223.301 151.359 223.301Z" fill="#FFCEB9"/>
<path d="M106.478 61.883C119.524 61.883 130.1 51.307 130.1 38.2609C130.1 25.2147 119.524 14.6388 106.478 14.6388C93.4315 14.6388 82.8555 25.2147 82.8555 38.2609C82.8555 51.307 93.4315 61.883 106.478 61.883Z" fill="#FFCEB9"/>
<path d="M88.7611 47.3163L85.6113 71.7257L111.595 81.1742L117.107 53.6151L88.7611 47.3163Z" fill="#FFCEB9"/>
<path d="M103.328 71.3318C103.328 71.3318 89.9796 64.7421 87.2049 59.3755L81.2807 65.0326C81.2807 65.0326 38.7608 61.0956 32.4616 82.3555C26.1624 103.615 31.6742 180.781 31.6742 180.781C31.6742 180.781 23.0128 215.427 25.375 216.214C27.7372 217.002 56.8711 231.175 97.8161 223.301C97.8161 223.301 115.926 220.151 119.076 222.513C122.226 224.876 117.501 184.718 117.501 184.718C117.501 184.718 148.997 113.852 143.486 105.19C137.974 96.5287 113.564 78.4185 113.564 78.4185L115.139 69.757C115.139 69.757 104.115 74.4815 103.328 71.3318Z" fill="#FB8F88"/>
<path d="M38.7596 76.8437C38.7596 76.8437 24.5863 83.9303 22.2241 94.954C19.8619 105.978 -2.18539 197.316 0.176803 202.828C2.53899 208.34 1.75166 215.427 1.75166 215.427L22.2241 213.065C22.2241 213.065 18.2871 207.553 20.6493 205.191C23.0115 202.828 25.3738 194.954 23.799 191.805C22.2241 188.655 20.6493 194.167 29.3108 183.931C37.9722 173.694 57.6573 79.9933 38.7596 76.8437Z" fill="#FB8F88"/>
<path d="M138.76 103.615C138.76 103.615 145.453 104.009 147.028 115.033C148.603 126.056 151.359 194.167 151.359 194.167C151.359 194.167 161.595 216.214 157.658 219.364C153.721 222.513 156.083 227.238 156.083 227.238L141.91 231.175L111.201 183.143L138.76 103.615Z" fill="#FB8F88"/>
<path d="M27.7365 213.065C27.7365 213.065 23.012 213.852 23.012 231.175C23.012 248.498 14.3506 302.041 19.8624 310.703C25.3743 319.364 26.1617 397.317 26.1617 397.317C26.1617 397.317 41.1223 403.616 53.7208 383.144L55.2956 372.12L58.4452 318.577L71.0437 251.647L88.3665 325.663C88.3665 325.663 86.0043 414.64 94.6658 414.64C103.327 414.64 119.863 407.553 119.863 407.553C119.863 407.553 123.8 399.679 122.225 395.742C120.65 391.805 119.075 392.593 120.65 389.443C122.225 386.293 124.587 304.403 124.587 304.403C124.587 304.403 121.438 220.151 117.501 217.789C113.563 215.427 27.7365 213.065 27.7365 213.065Z" fill="#2F2E41"/>
<path d="M27.7373 394.167L15.1388 407.553C15.1388 407.553 -7.6959 428.813 11.9892 429.601C31.6743 430.388 42.698 417.002 42.698 415.427C42.698 413.853 43.4854 408.341 48.9972 408.341C54.509 408.341 67.8949 394.955 64.7452 389.443C61.5956 383.931 52.1468 381.569 52.1468 381.569L27.7373 394.167Z" fill="#1B1A2F"/>
<path d="M95.4544 411.49C95.4544 411.49 86.0056 430.388 91.5174 434.325C97.0292 438.262 98.604 439.837 98.604 439.837C98.604 439.837 103.328 439.049 102.541 446.136C101.754 453.223 130.888 457.16 132.462 451.648C134.037 446.136 133.25 435.112 130.1 431.963C126.951 428.813 117.502 406.766 117.502 406.766C117.502 406.766 107.265 394.955 95.4544 411.49Z" fill="#1B1A2F"/>
<path d="M130.319 19.293L134.769 18.6609C134.769 18.6609 128.574 7.25895 116.584 5.18858L120.793 2.34793C120.793 2.34793 113.479 -2.87869 104.028 3.83947C99.0589 7.37105 93.29 11.5397 89.0465 16.7867L84.7056 15.7259L85.5424 20.1578L78.2266 22.5973L84.9101 23.4714C83.9884 25.5611 83.3838 27.7767 83.1163 30.045C82.8572 32.316 83.4905 34.5989 84.8826 36.4118C84.8826 36.4118 92.4524 27.2352 92.849 25.6124L91.8576 29.6692C91.8576 29.6692 96.8032 27.0087 97.3981 24.5747L98.915 27.9548L101.111 23.7624L113.654 31.5569L112.336 27.3655L120.513 30.6538L118.288 25.3807C118.288 25.3807 126.579 32.996 125.857 37.5486C125.135 42.1011 126.906 47.0149 126.906 47.0149C126.906 47.0149 139.518 27.9898 130.319 19.293Z" fill="#071136"/>
<path d="M348.382 286.931H222.285V288.44H348.382V286.931Z" fill="#446CFF"/>
<path d="M263.756 363.984L257.051 344.481L238.222 350.954L244.928 370.457L263.756 363.984Z" fill="#F2F2F2"/>
<path d="M246.523 367.039L239.465 346.509L259.284 339.695L266.342 360.226L246.523 367.039ZM240.809 347.195L247.161 365.672L264.999 359.54L258.646 341.063L240.809 347.195Z" fill="#446CFF"/>
<path d="M285.082 279.242L158.361 233.729L180.985 170.739L259.887 151.389L307.706 216.252L285.082 279.242Z" fill="#1A3EC5"/>
<path d="M269.73 266.751L175.031 230.653C199.615 197.723 210.609 174.495 210.617 137.942L305.316 174.041C283.315 205.292 274.115 228.785 269.73 266.751Z" fill="#F2F2F2"/>
<path d="M277.184 178.981L228.123 160.279L227.253 162.561L276.314 181.263L277.184 178.981Z" fill="#446CFF"/>
<path d="M273.705 188.108L224.645 169.407L223.775 171.689L272.835 190.39L273.705 188.108Z" fill="#446CFF"/>
<path d="M270.225 197.236L221.164 178.534L220.294 180.816L269.355 199.518L270.225 197.236Z" fill="#446CFF"/>
<path d="M266.746 206.364L217.686 187.662L216.816 189.944L265.876 208.645L266.746 206.364Z" fill="#446CFF"/>
<path d="M263.268 215.491L214.207 196.789L213.337 199.071L262.398 217.773L263.268 215.491Z" fill="#446CFF"/>
<path d="M259.787 224.619L210.727 205.917L209.857 208.199L258.917 226.901L259.787 224.619Z" fill="#446CFF"/>
<path d="M256.307 233.746L207.246 215.045L206.376 217.326L255.437 236.028L256.307 233.746Z" fill="#446CFF"/>
<path d="M252.828 242.874L203.768 224.172L202.898 226.454L251.958 245.156L252.828 242.874Z" fill="#446CFF"/>
<path d="M282.154 287.394L155.434 241.881L180.985 170.739L234.498 220.915L307.706 216.252L282.154 287.394Z" fill="#446CFF"/>
<path d="M217.766 264.977L154.58 242.283L169.976 199.415L171.232 199.866L156.287 241.478L218.217 263.721L217.766 264.977Z" fill="#FB8F88"/>
<path d="M195.306 219.388L176.779 212.734L174.118 220.144L192.644 226.798L195.306 219.388Z" fill="#FB8F88"/>
<path d="M275.143 163.645C276.328 160.536 270.311 155.356 261.703 152.075C253.096 148.794 245.157 148.654 243.972 151.763C242.787 154.872 248.804 160.052 257.412 163.333C266.019 166.614 273.958 166.754 275.143 163.645Z" fill="#FB8F88"/>
<path d="M288.765 68.832C285.586 67.8435 282.243 67.4908 278.928 67.7941C275.612 68.0974 272.389 69.0508 269.442 70.5999C266.495 72.1489 263.882 74.2632 261.752 76.8221C259.622 79.381 258.017 82.3344 257.028 85.5136C252.871 98.8841 264.201 147.831 264.201 147.831C264.201 147.831 301.289 113.94 305.447 100.569C307.443 94.1485 306.808 87.1976 303.679 81.2457C300.551 75.2939 295.186 70.8285 288.765 68.832ZM277.672 104.509C275.404 103.804 273.396 102.442 271.902 100.595C270.408 98.7489 269.495 96.5009 269.278 94.1355C269.062 91.7702 269.552 89.3939 270.686 87.3069C271.82 85.22 273.548 83.5163 275.65 82.4112C277.753 81.3061 280.136 80.8493 282.498 81.0985C284.86 81.3477 287.095 82.2918 288.92 83.8113C290.746 85.3308 292.08 87.3576 292.754 89.6352C293.427 91.9129 293.41 94.3391 292.705 96.6072C292.237 98.1132 291.477 99.5121 290.468 100.724C289.459 101.936 288.221 102.938 286.825 103.672C285.429 104.405 283.902 104.857 282.332 105.001C280.761 105.144 279.178 104.977 277.672 104.509Z" fill="#FB8F88"/>
</svg>
