<svg width="344" height="247" viewBox="0 0 344 247" fill="none" xmlns="http://www.w3.org/2000/svg">
<g opacity="0.6" filter="url(#filter0_f)">
<path d="M44 114.335L95.443 77L192.051 115.064L160.253 114.335L300 218.145L132.709 240L85.3165 114.335H44Z" fill="#2442B1"/>
</g>
<path d="M14.7173 43.2953L69.6063 0L169.602 46.1937H141.524L270.866 151.443L96.0545 176.985L55.2953 44.0199L14.7173 43.2953Z" fill="url(#paint0_linear)"/>
<g filter="url(#filter1_ii)">
<path d="M25.5864 41.3026L71.599 4.1665L158.008 42.0272L129.568 41.3026L254.562 144.559L104.931 166.297L62.5414 41.3026H25.5864Z" fill="#446CFF"/>
</g>
<path d="M12 56.3382L14.8984 43.2953H55.2953L95.8733 177.166L271.047 151.443L262.895 164.305L89.3518 193.47L51.1288 56.3382H12Z" fill="#7B7B7B"/>
<path d="M12 56.3382L14.8984 43.2953H55.2953L95.8733 177.166L271.047 151.443L262.895 164.305L89.3518 193.47L51.1288 56.3382H12Z" fill="url(#paint1_linear)"/>
<path d="M165.254 57.4251L170.327 46.1937H141.523L154.929 57.4251H165.254Z" fill="#C4C4C4"/>
<g opacity="0.5" filter="url(#filter2_f)">
<path d="M115.5 137.5L102 117.5L166 101L185.5 123L115.5 137.5Z" fill="url(#paint2_linear)"/>
</g>
<path d="M114.035 114.309C114.015 113.282 114.776 112.407 115.796 112.284L179.141 104.664C179.96 104.565 180.756 104.98 181.144 105.708L191.155 124.478C191.808 125.703 191.045 127.205 189.669 127.399L116.735 137.685C115.547 137.852 114.479 136.943 114.456 135.744L114.035 114.309Z" fill="url(#paint3_linear)"/>
<g filter="url(#filter3_d)">
<path d="M117 115.287C117 114.269 117.764 113.414 118.776 113.3L177.562 106.662C178.42 106.565 179.244 107.03 179.604 107.815L186.355 122.508C186.921 123.74 186.123 125.166 184.777 125.328L119.239 133.23C118.049 133.374 117 132.444 117 131.244V115.287Z" fill="url(#paint4_linear)"/>
</g>
<path d="M129.242 116.258L129.221 127.399L125.649 127.805C125.131 126.153 124.625 124.266 124.132 122.143C124.123 123.076 124.076 125.026 123.991 127.994L120.439 128.397L117.913 117.546L120.691 117.23L121.419 121.034L122.138 124.702C122.025 122.775 122.002 120.232 122.07 117.073L125.045 116.735C125.122 117.052 125.363 118.249 125.769 120.327L126.556 124.469C126.413 121.793 126.382 119.161 126.464 116.574L129.242 116.258ZM136.524 120.646L136.775 122.853C136.867 123.664 136.894 124.264 136.856 124.654C136.817 125.039 136.683 125.412 136.453 125.773C136.223 126.129 135.906 126.41 135.503 126.617C135.104 126.818 134.633 126.95 134.09 127.011C133.483 127.08 132.961 127.073 132.525 126.99C132.089 126.902 131.738 126.737 131.472 126.497C131.21 126.251 131.008 125.944 130.865 125.575C130.722 125.202 130.606 124.632 130.519 123.867L130.257 121.558C130.162 120.72 130.178 120.055 130.306 119.564C130.433 119.072 130.716 118.657 131.155 118.318C131.593 117.98 132.18 117.768 132.913 117.685C133.529 117.615 134.067 117.648 134.527 117.784C134.992 117.915 135.361 118.113 135.634 118.38C135.907 118.648 136.105 118.932 136.226 119.235C136.352 119.537 136.452 120.008 136.524 120.646ZM133.703 120.279C133.651 119.817 133.593 119.53 133.53 119.418C133.466 119.301 133.353 119.252 133.19 119.271C133.026 119.289 132.925 119.363 132.884 119.491C132.843 119.615 132.849 119.908 132.902 120.37L133.364 124.438C133.412 124.864 133.471 125.139 133.54 125.264C133.609 125.385 133.723 125.436 133.881 125.418C134.044 125.4 134.144 125.329 134.18 125.205C134.221 125.081 134.22 124.825 134.175 124.435L133.703 120.279ZM139.819 117.066L139.845 118.26C140.147 117.368 140.673 116.854 141.424 116.718L141.784 119.89C141.281 119.947 140.92 120.057 140.7 120.22C140.48 120.382 140.357 120.589 140.33 120.84C140.303 121.086 140.339 121.646 140.439 122.52L140.843 126.079L138.099 126.391L137.075 117.377L139.819 117.066ZM144.661 114.507L145.91 125.503L143.084 125.824L141.835 114.828L144.661 114.507ZM151.894 113.685L153.144 124.681L150.4 124.993L150.326 124.341C150.094 124.643 149.841 124.878 149.566 125.047C149.292 125.215 148.996 125.318 148.679 125.354C148.254 125.402 147.872 125.333 147.534 125.147C147.196 124.956 146.965 124.718 146.841 124.434C146.722 124.15 146.624 123.675 146.548 123.009L146.069 118.791C145.991 118.098 145.978 117.602 146.031 117.302C146.089 117.002 146.263 116.726 146.556 116.472C146.847 116.214 147.213 116.06 147.652 116.011C147.992 115.972 148.309 115.998 148.604 116.088C148.903 116.178 149.182 116.332 149.44 116.55L149.15 113.997L151.894 113.685ZM149.633 118.248C149.596 117.918 149.541 117.699 149.469 117.593C149.402 117.486 149.285 117.442 149.117 117.461C148.954 117.479 148.849 117.544 148.802 117.655C148.759 117.761 148.758 117.99 148.798 118.343L149.3 122.758C149.341 123.125 149.396 123.364 149.464 123.476C149.531 123.583 149.641 123.628 149.795 123.61C149.972 123.59 150.082 123.513 150.127 123.38C150.171 123.242 150.164 122.922 150.107 122.419L149.633 118.248ZM155.419 113.284L160.188 112.743L160.438 114.943L158.529 115.16L158.766 117.245L160.552 117.042L160.79 119.134L159.004 119.337L159.278 121.755L161.377 121.517L161.627 123.718L156.669 124.281L155.419 113.284ZM167 111.969L166.554 116.945L168.759 122.907L166.11 123.208C165.669 122.148 165.227 120.848 164.786 119.306C164.792 120.007 164.776 120.755 164.738 121.548L164.67 123.372L161.885 123.688L162.221 117.438L160.636 112.692L163.4 112.378C163.485 112.675 163.642 113.169 163.871 113.858C164.05 114.384 164.204 114.866 164.332 115.306L164.603 112.241L167 111.969ZM167.917 111.864L170.797 111.537C171.576 111.449 172.181 111.442 172.611 111.517C173.046 111.591 173.381 111.732 173.615 111.939C173.854 112.146 174.029 112.411 174.139 112.733C174.253 113.05 174.349 113.553 174.427 114.241L174.536 115.199C174.616 115.901 174.602 116.421 174.493 116.759C174.385 117.097 174.146 117.374 173.776 117.59C173.411 117.806 172.915 117.949 172.291 118.02L171.523 118.108L172.026 122.536L169.167 122.861L167.917 111.864ZM170.991 113.421L171.308 116.219C171.39 116.215 171.461 116.209 171.52 116.202C171.782 116.172 171.956 116.088 172.042 115.95C172.131 115.807 172.152 115.532 172.106 115.124L172.003 114.221C171.961 113.845 171.874 113.607 171.743 113.507C171.613 113.408 171.362 113.379 170.991 113.421ZM182.165 116.768C182.291 117.873 182.353 118.659 182.351 119.127C182.353 119.59 182.238 120.027 182.005 120.439C181.776 120.85 181.44 121.184 180.997 121.441C180.554 121.698 180.022 121.862 179.402 121.932C178.813 121.999 178.272 121.964 177.78 121.827C177.291 121.686 176.882 121.439 176.553 121.086C176.224 120.734 176.007 120.334 175.901 119.887C175.796 119.441 175.678 118.651 175.55 117.519L175.336 115.638C175.21 114.533 175.147 113.749 175.144 113.286C175.146 112.818 175.261 112.378 175.49 111.967C175.723 111.555 176.061 111.221 176.504 110.964C176.948 110.708 177.479 110.544 178.1 110.474C178.688 110.407 179.227 110.444 179.715 110.586C180.208 110.722 180.619 110.967 180.948 111.32C181.277 111.672 181.494 112.072 181.6 112.518C181.706 112.965 181.823 113.754 181.952 114.886L182.165 116.768ZM178.895 113.479C178.837 112.967 178.771 112.645 178.696 112.511C178.625 112.372 178.501 112.313 178.325 112.333C178.175 112.35 178.067 112.422 177.998 112.549C177.934 112.671 177.934 113.015 177.999 113.581L178.582 118.716C178.655 119.354 178.724 119.745 178.791 119.889C178.862 120.033 178.993 120.093 179.183 120.072C179.378 120.05 179.493 119.949 179.528 119.771C179.562 119.593 179.543 119.18 179.469 118.533L178.895 113.479Z" fill="#446CFF"/>
<defs>
<filter id="filter0_f" x="0" y="33" width="344" height="251" filterUnits="userSpaceOnUse" color-interpolation-filters="sRGB">
<feFlood flood-opacity="0" result="BackgroundImageFix"/>
<feBlend mode="normal" in="SourceGraphic" in2="BackgroundImageFix" result="shape"/>
<feGaussianBlur stdDeviation="22" result="effect1_foregroundBlur"/>
</filter>
<filter id="filter1_ii" x="25.5864" y="2.1665" width="228.976" height="167.131" filterUnits="userSpaceOnUse" color-interpolation-filters="sRGB">
<feFlood flood-opacity="0" result="BackgroundImageFix"/>
<feBlend mode="normal" in="SourceGraphic" in2="BackgroundImageFix" result="shape"/>
<feColorMatrix in="SourceAlpha" type="matrix" values="0 0 0 0 0 0 0 0 0 0 0 0 0 0 0 0 0 0 127 0" result="hardAlpha"/>
<feOffset dy="4"/>
<feGaussianBlur stdDeviation="1.5"/>
<feComposite in2="hardAlpha" operator="arithmetic" k2="-1" k3="1"/>
<feColorMatrix type="matrix" values="0 0 0 0 0 0 0 0 0 0 0 0 0 0 0 0 0 0 0.25 0"/>
<feBlend mode="normal" in2="shape" result="effect1_innerShadow"/>
<feColorMatrix in="SourceAlpha" type="matrix" values="0 0 0 0 0 0 0 0 0 0 0 0 0 0 0 0 0 0 127 0" result="hardAlpha"/>
<feOffset dy="-2"/>
<feGaussianBlur stdDeviation="1"/>
<feComposite in2="hardAlpha" operator="arithmetic" k2="-1" k3="1"/>
<feColorMatrix type="matrix" values="0 0 0 0 0 0 0 0 0 0 0 0 0 0 0 0 0 0 0.25 0"/>
<feBlend mode="normal" in2="effect1_innerShadow" result="effect2_innerShadow"/>
</filter>
<filter id="filter2_f" x="98" y="97" width="91.5" height="44.5" filterUnits="userSpaceOnUse" color-interpolation-filters="sRGB">
<feFlood flood-opacity="0" result="BackgroundImageFix"/>
<feBlend mode="normal" in="SourceGraphic" in2="BackgroundImageFix" result="shape"/>
<feGaussianBlur stdDeviation="2" result="effect1_foregroundBlur"/>
</filter>
<filter id="filter3_d" x="115" y="104.65" width="73.5391" height="30.595" filterUnits="userSpaceOnUse" color-interpolation-filters="sRGB">
<feFlood flood-opacity="0" result="BackgroundImageFix"/>
<feColorMatrix in="SourceAlpha" type="matrix" values="0 0 0 0 0 0 0 0 0 0 0 0 0 0 0 0 0 0 127 0"/>
<feOffset/>
<feGaussianBlur stdDeviation="1"/>
<feColorMatrix type="matrix" values="0 0 0 0 0 0 0 0 0 0 0 0 0 0 0 0 0 0 0.65 0"/>
<feBlend mode="normal" in2="BackgroundImageFix" result="effect1_dropShadow"/>
<feBlend mode="normal" in="SourceGraphic" in2="effect1_dropShadow" result="shape"/>
</filter>
<linearGradient id="paint0_linear" x1="71.2366" y1="5.74323e-06" x2="173.587" y2="169.739" gradientUnits="userSpaceOnUse">
<stop stop-color="#939393"/>
<stop offset="0.213542" stop-color="#EEEEEE"/>
<stop offset="0.515625" stop-color="#8A8A8A"/>
<stop offset="0.807292" stop-color="#DCDCDC"/>
<stop offset="1" stop-color="#939393"/>
</linearGradient>
<linearGradient id="paint1_linear" x1="69.1589" y1="43.2953" x2="148.27" y2="199.665" gradientUnits="userSpaceOnUse">
<stop stop-color="#939393"/>
<stop offset="0.213542" stop-color="#EEEEEE"/>
<stop offset="0.515625" stop-color="#8A8A8A"/>
<stop offset="0.807292" stop-color="#DCDCDC"/>
<stop offset="1" stop-color="#939393"/>
</linearGradient>
<linearGradient id="paint2_linear" x1="148.5" y1="105" x2="155" y2="128" gradientUnits="userSpaceOnUse">
<stop stop-opacity="0"/>
<stop offset="1"/>
</linearGradient>
<linearGradient id="paint3_linear" x1="148.5" y1="108" x2="155" y2="138" gradientUnits="userSpaceOnUse">
<stop stop-color="#224ADA"/>
<stop offset="1" stop-color="#A9B2D3"/>
</linearGradient>
<linearGradient id="paint4_linear" x1="154.5" y1="105" x2="154.5" y2="127" gradientUnits="userSpaceOnUse">
<stop stop-color="white"/>
<stop offset="1" stop-color="#D1DEE9"/>
</linearGradient>
</defs>
</svg>
