<svg width="47" height="45" viewBox="0 0 47 45" fill="none" xmlns="http://www.w3.org/2000/svg">
<path d="M29.2485 7.18061C36.4409 10.5008 44.8213 18.2084 41.5412 25.3141C38.261 32.4198 22.7476 40.1642 15.5552 36.844C8.36282 33.5239 5.95868 16.7553 9.23885 9.64953C12.519 2.5438 22.0561 3.86045 29.2485 7.18061Z" fill="white"/>
<path d="M26.8712 13.0858C31.2644 15.1138 36.3832 19.8217 34.3797 24.162C32.3761 28.5022 22.9003 33.2325 18.5072 31.2046C14.114 29.1766 12.6455 18.9341 14.6491 14.5938C16.6526 10.2536 22.478 11.0578 26.8712 13.0858Z" fill="white"/>
<path d="M26.8712 13.0858C31.2644 15.1138 36.3832 19.8217 34.3797 24.162C32.3761 28.5022 22.9003 33.2325 18.5072 31.2046C14.114 29.1766 12.6455 18.9341 14.6491 14.5938C16.6526 10.2536 22.478 11.0578 26.8712 13.0858Z" fill="url(#paint0_linear)"/>
<path d="M26.8712 13.0858C31.2644 15.1138 36.3832 19.8217 34.3797 24.162C32.3761 28.5022 22.9003 33.2325 18.5072 31.2046C14.114 29.1766 12.6455 18.9341 14.6491 14.5938C16.6526 10.2536 22.478 11.0578 26.8712 13.0858Z" fill="url(#paint1_linear)"/>
<defs>
<linearGradient id="paint0_linear" x1="9.66499" y1="16.1033" x2="18.6808" y2="38.7125" gradientUnits="userSpaceOnUse">
<stop stop-color="#518CFF"/>
<stop offset="1" stop-color="#E961FF"/>
</linearGradient>
<linearGradient id="paint1_linear" x1="11.7211" y1="25.7318" x2="28.8723" y2="11.2417" gradientUnits="userSpaceOnUse">
<stop stop-color="#446CFF"/>
<stop offset="1" stop-color="#44A5FF"/>
</linearGradient>
</defs>
</svg>
