<svg width="70" height="70" viewBox="0 0 70 70" fill="none" xmlns="http://www.w3.org/2000/svg">
<mask id="mask0" mask-type="alpha" maskUnits="userSpaceOnUse" x="0" y="0" width="70" height="70">
<rect width="70" height="70" fill="#C4C4C4"/>
</mask>
<g mask="url(#mask0)">
<path fill-rule="evenodd" clip-rule="evenodd" d="M29.8852 5.75899C29.4875 6.32685 29.0843 6.90722 28.6787 7.49889L20.1816 1.54918L18.9033 3.3748C15.6348 8.04281 14.1155 12.8588 14.2587 18.0983C14.3801 22.5416 15.6691 26.5038 16.8064 29.9996C17.5211 32.1967 18.1569 34.1554 18.3815 35.8417C18.5175 39.5448 19.3037 43.2287 20.7238 46.8188L18.6139 49.8321L17.7011 49.193C13.1712 46.0211 6.90525 47.1259 3.73338 51.6558L2.45507 53.4815L24.3625 68.8212L25.6408 66.9956C28.8127 62.4657 27.7078 56.1998 23.1779 53.0279L22.2651 52.3887L24.3751 49.3754C28.2413 49.4822 31.9781 48.959 35.51 47.8159C37.1566 47.4515 39.182 47.3688 41.4532 47.2776C45.1027 47.1311 49.2393 46.965 53.4343 45.5391C58.3754 43.8594 62.3676 40.7718 65.6391 36.0996L66.9174 34.2739L58.6029 28.4521C59.0202 27.8686 59.4277 27.2911 59.8253 26.7233L61.1036 24.8977L31.1635 3.93337L29.8852 5.75899ZM55.9449 32.0323L60.6311 35.3136C56.0454 40.7683 50.673 42.1287 45.5069 42.5849C45.8088 42.3613 46.1095 42.1341 46.4078 41.8998C50.1655 38.9484 53.2684 35.4788 55.9449 32.0323ZM9.04402 52.6537C10.8774 51.5371 13.2765 51.5362 15.1444 52.8442L20.6213 56.6791C22.4893 57.9871 23.309 60.2418 22.8868 62.3465L9.04402 52.6537ZM22.9255 37.1673C22.9321 36.558 22.8871 35.9391 22.8052 35.3119C22.5743 25.9042 27.223 17.5604 32.2692 10.149L54.8846 25.9845C49.6507 33.2549 43.4065 40.4709 34.4996 43.4762C33.8744 43.6158 33.2698 43.7878 32.6915 44.0054L32.6954 44.0157C30.2554 44.6556 27.6238 44.9854 24.7691 44.9272C23.738 42.2645 23.1479 39.6787 22.9145 37.1672L22.9255 37.1673ZM20.2131 23.558C20.0835 23.9532 19.9625 24.3483 19.8465 24.7433C18.4315 19.6551 17.7716 14.0572 21.3562 7.81303L26.2236 11.2212C23.9003 14.915 21.7012 19.0175 20.2131 23.558ZM35.9693 36.8183L38.1199 32.222L43.1856 31.4473L39.4095 27.913L40.1423 22.8741L35.6579 25.286L31.0452 22.9466L32.0498 27.9716L28.4662 31.5646L33.5715 32.2582L35.9693 36.8183Z" fill="#446CFF"/>
</g>
</svg>
