<svg width="67" height="67" viewBox="0 0 67 67" fill="none" xmlns="http://www.w3.org/2000/svg">
<path d="M8.37496 0H43.954L62.8124 18.7852V62.8125C62.8124 65.1261 60.9365 67 58.6249 67H8.37496C6.0634 67 4.1875 65.1261 4.1875 62.8125V4.18746C4.1875 1.87395 6.06361 0 8.37496 0Z" fill="#E2574C"/>
<path d="M62.7518 18.8437H48.1562C45.8446 18.8437 43.9688 16.9678 43.9688 14.6562V0.0418091L62.7518 18.8437Z" fill="#B53629"/>
<path d="M47.1047 31.7474C47.8062 31.7474 48.1496 31.1361 48.1496 30.5436C48.1496 29.93 47.7915 29.3375 47.1047 29.3375H43.1099C42.3289 29.3375 41.8934 29.9844 41.8934 30.6985V40.516C41.8934 41.3912 42.3917 41.8769 43.0659 41.8769C43.736 41.8769 44.2364 41.3912 44.2364 40.516V37.8214H46.6526C47.4022 37.8214 47.777 37.2079 47.777 36.5987C47.777 36.0021 47.4022 35.4093 46.6526 35.4093H44.2364V31.7474H47.1047ZM33.6021 29.3375H30.6792C29.8857 29.3375 29.3224 29.8819 29.3224 30.69V40.5244C29.3224 41.5273 30.1326 41.8414 30.7126 41.8414H33.78C37.4105 41.8414 39.8078 39.4525 39.8078 35.7653C39.8059 31.8668 37.5489 29.3375 33.6021 29.3375ZM33.7425 39.417H31.9607V31.7622H33.5666C35.9975 31.7622 37.0548 33.3933 37.0548 35.644C37.0548 37.7504 36.0162 39.417 33.7425 39.417ZM23.035 29.3375H20.1394C19.3207 29.3375 18.8643 29.8776 18.8643 30.6985V40.516C18.8643 41.3912 19.3877 41.8769 20.0911 41.8769C20.7945 41.8769 21.3179 41.3912 21.3179 40.516V37.6496H23.1332C25.3735 37.6496 27.2223 36.0625 27.2223 33.5103C27.2225 31.0126 25.4387 29.3375 23.035 29.3375ZM22.9869 35.3467H21.3182V31.6428H22.9869C24.0171 31.6428 24.6724 32.4468 24.6724 33.4957C24.6702 34.5428 24.0171 35.3467 22.9869 35.3467Z" fill="white"/>
</svg>
