<svg width="25" height="25" viewBox="0 0 25 25" fill="none" xmlns="http://www.w3.org/2000/svg">
<g clip-path="url(#clip0)">
<path d="M24.9016 22.6394L23.1854 17.6446C24.0109 15.976 24.4474 14.116 24.4504 12.2446C24.4553 9.02182 23.2084 5.97451 20.9392 3.66416C18.6696 1.35337 15.6453 0.0526915 12.4233 0.0015685C10.7353 -0.0255311 9.09732 0.285503 7.5524 0.925004C6.06232 1.54185 4.72604 2.43535 3.58073 3.58066C2.43537 4.72597 1.54187 6.06225 0.925071 7.55234C0.28557 9.09725 -0.0251227 10.7361 0.00158626 12.4233C0.0526115 15.6452 1.35334 18.6696 3.66413 20.9392C5.96998 23.204 9.00943 24.4505 12.2252 24.4504C12.2315 24.4504 12.2382 24.4504 12.2445 24.4504C14.116 24.4475 15.9759 24.0109 17.6446 23.1855L22.6393 24.9017C22.8314 24.9677 23.0283 24.9999 23.223 24.9999C23.6856 24.9999 24.1356 24.8182 24.4768 24.4769C24.9616 23.9921 25.1245 23.288 24.9016 22.6394ZM23.4287 23.4288C23.3796 23.478 23.2743 23.5526 23.1209 23.5L17.8283 21.6813C17.75 21.6545 17.6686 21.6411 17.5874 21.6411C17.4678 21.6411 17.3487 21.67 17.2409 21.7271C15.7112 22.5363 13.9827 22.9655 12.2421 22.9682C6.40475 22.9776 1.57605 18.2363 1.48357 12.3998C1.43703 9.46332 2.55402 6.70351 4.62878 4.62876C6.70353 2.55405 9.46251 1.43726 12.3998 1.48369C18.2362 1.57622 22.9772 6.40253 22.9681 12.2423C22.9654 13.9829 22.5362 15.7114 21.727 17.2409C21.6312 17.422 21.6147 17.6346 21.6812 17.8283L23.4999 23.121C23.5526 23.2743 23.478 23.3797 23.4287 23.4288Z" fill="white"/>
<path d="M12.105 17.7122C11.7174 17.7122 11.346 18.0531 11.3639 18.4534C11.3819 18.8549 11.6895 19.1945 12.105 19.1945C12.4927 19.1945 12.8641 18.8536 12.8461 18.4534C12.8282 18.0518 12.5205 17.7122 12.105 17.7122Z" fill="white"/>
<path d="M12.1052 6.23407C10.0721 6.23407 8.41797 7.88817 8.41797 9.92132C8.41797 10.3306 8.7498 10.6624 9.15908 10.6624C9.56836 10.6624 9.90019 10.3306 9.90019 9.92132C9.90019 8.7055 10.8894 7.71629 12.1052 7.71629C13.321 7.71629 14.3102 8.7055 14.3102 9.92132C14.3102 11.1371 13.321 12.1263 12.1052 12.1263C11.6959 12.1263 11.3641 12.4582 11.3641 12.8675V15.8902C11.3641 16.2994 11.6959 16.6313 12.1052 16.6313C12.5145 16.6313 12.8463 16.2995 12.8463 15.8901V13.5337C14.5255 13.1897 15.7925 11.7007 15.7925 9.92132C15.7925 7.88817 14.1384 6.23407 12.1052 6.23407Z" fill="white"/>
</g>
<defs>
<clipPath id="clip0">
<rect width="25" height="25" fill="white"/>
</clipPath>
</defs>
</svg>
