<svg width="18" height="18" viewBox="0 0 18 18" fill="none" xmlns="http://www.w3.org/2000/svg">
<path d="M12.4908 5.92068L5.88837 10.0156C5.77213 10.0876 5.71924 10.2292 5.75981 10.3599L6.64545 13.2136C6.66405 13.2736 6.75142 13.2653 6.75845 13.2029L6.97371 11.2894C6.982 11.2154 7.01747 11.1472 7.0732 11.0979L12.6642 6.15383C12.7981 6.0355 12.6426 5.82648 12.4908 5.92068Z" fill="white"/>
<path d="M0 0V18H18V0H0ZM15.0042 4.67715L12.9491 14.5024C12.8527 14.9635 12.3119 15.1706 11.9322 14.8918L8.82935 12.6142L7.24793 14.2289C6.97039 14.5123 6.49093 14.3976 6.37169 14.0193L5.23019 10.3971L2.1715 9.49393C1.77022 9.37544 1.74656 8.81596 2.13643 8.66402L14.1733 3.9734C14.6314 3.79487 15.1049 4.19584 15.0042 4.67715Z" fill="white"/>
</svg>
