<svg width="29" height="23" viewBox="0 0 29 23" fill="none" xmlns="http://www.w3.org/2000/svg">
<path fill-rule="evenodd" clip-rule="evenodd" d="M4.16482 8.38846C5.11774 3.61228 9.34095 0 14.3942 0C18.1073 0 21.5712 2.0009 23.433 5.22018L21.4263 6.38061C19.9772 3.87543 17.2831 2.31853 14.3942 2.31853C10.3402 2.31853 6.98184 5.30945 6.38366 9.19879L9.06157 7.18978L10.4527 9.0446L5.81562 12.5224C5.60695 12.6789 5.36235 12.7543 5.12122 12.7543C4.7688 12.7543 4.41986 12.5943 4.19265 12.2906L0.714844 7.65348L2.56967 6.26236L4.16482 8.38846ZM22.9515 9.52452C23.4499 9.12921 24.1756 9.21036 24.5744 9.71L28.2841 14.3471L26.4733 15.795L24.644 13.5078C23.7409 18.3477 19.4934 22.0261 14.3949 22.0261C10.6818 22.0261 7.2202 20.0275 5.35842 16.8105L7.36511 15.6489C8.81304 18.153 11.5072 19.7075 14.3949 19.7075C18.4164 19.7075 21.7551 16.763 22.3915 12.9177L19.9826 14.8201L18.5462 13.0012L22.9515 9.52452Z" fill="white"/>
</svg>
